<?xml version="1.0" encoding="UTF-8" standalone="no"?>
<!DOCTYPE svg PUBLIC "-//W3C//DTD SVG 1.1//EN" "http://www.w3.org/Graphics/SVG/1.1/DTD/svg11.dtd">
<svg width="100%" height="100%" viewBox="0 0 430 430" version="1.1"
    xmlns="http://www.w3.org/2000/svg" xmlns:xlink="http://www.w3.org/1999/xlink"
    xml:space="preserve" xmlns:serif="http://www.serif.com/"
    style="fill-rule:evenodd;clip-rule:evenodd;stroke-linejoin:round;stroke-miterlimit:2;">
    <g transform="matrix(1,0,0,1,-1091.94,-328.111)">
        <g id="Artboard2" transform="matrix(1.25998,0,0,1.25998,-255.746,28.8757)">
            <rect x="1069.61" y="237.492" width="341.275" height="341.275"
                style="fill:rgb(8,33,55)" />
            <g transform="matrix(1.29384,0,0,1.29384,1074.64,244.467)">
                <path
                    d="M216,40C224.777,40 232,47.223 232,56L232,176C232,184.777 224.777,192 216,192L176.64,192L198.25,219C199.385,220.419 200.004,222.183 200.004,224C200.004,228.391 196.391,232.004 192,232.004C189.57,232.004 187.268,230.897 185.75,229L156.16,192L99.84,192L70.25,229C68.732,230.897 66.43,232.004 64,232.004C59.609,232.004 55.996,228.391 55.996,224C55.996,222.183 56.615,220.419 57.75,219L79.36,192L40,192C31.223,192 24,184.777 24,176L24,56C24,47.223 31.223,40 40,40L120,40L120,24C120,19.611 123.611,16 128,16C132.389,16 136,19.611 136,24L136,40L216,40ZM165.265,71.872C164.055,70.929 162.476,70.594 160.987,70.966L107.777,84.269C105.564,84.822 103.999,86.826 103.998,89.107L103.998,132.071C101.9,131.155 99.636,130.682 97.347,130.682C88.225,130.682 80.719,138.189 80.719,147.311C80.719,156.433 88.225,163.939 97.347,163.939C106.469,163.939 113.975,156.433 113.975,147.311L113.975,95.167L157.209,84.359L157.209,118.776C155.111,117.861 152.846,117.388 150.557,117.388C141.435,117.388 133.929,124.894 133.929,134.016C133.929,143.138 141.435,150.645 150.557,150.645C159.679,150.645 167.186,143.138 167.186,134.016L167.186,134.004L167.186,75.805C167.185,74.269 166.476,72.817 165.265,71.872Z"
                    style="fill:hsl(39, 100%, 65%);" />
            </g>
        </g>
    </g>
</svg>
